<?xml version="1.0" encoding="utf-8"?>
<!-- Generator: Adobe Illustrator 23.0.0, SVG Export Plug-In . SVG Version: 6.00 Build 0)  -->
<svg version="1.1" id="katman_1" xmlns="http://www.w3.org/2000/svg" xmlns:xlink="http://www.w3.org/1999/xlink" x="0px" y="0px"
	 viewBox="0 0 3762 1080" style="enable-background:new 0 0 3762 1080;" xml:space="preserve">
<style type="text/css">
	.st0{fill:#FFFFFF;stroke:#808080;stroke-width:3;stroke-miterlimit:10;}
	.st1{fill:url(#SVGID_1_);stroke:#808080;stroke-width:3;stroke-miterlimit:10;}
	.st2{fill:none;stroke:#FFFFFF;stroke-width:12;stroke-linecap:round;stroke-linejoin:round;stroke-miterlimit:10;}
	.st3{fill:#FFFFFF;}
	.st4{fill:#808080;}
	.st5{fill:#29ABE2;}
	.st6{fill:url(#SVGID_2_);stroke:#808080;stroke-width:3;stroke-miterlimit:10;}
</style>
<g>
	
	<linearGradient id="SVGID_1_" gradientUnits="userSpaceOnUse" x1="894.2015" y1="292.708" x2="155.1714" y2="785.5922">
		<stop  offset="0" style="stop-color:#999999"/>
		<stop  offset="0.1532" style="stop-color:#919A9E"/>
		<stop  offset="0.3894" style="stop-color:#7C9EAC"/>
		<stop  offset="0.6787" style="stop-color:#58A3C3"/>
		<stop  offset="1" style="stop-color:#29ABE2"/>
	</linearGradient>
	<circle class="st1" cx="523.5" cy="539.94" r="444.11"/>
	<g>
		<g>
			<path class="st2" d="M426.31,316.93v446.08c0,1.19,0.21,2.37,0.63,3.48c15.45,40.11,54.31,66.7,97.25,66.41
				c42.44-0.29,80.57-26.78,95.84-66.41c0.43-1.11,0.63-2.29,0.63-3.48V316.92c0-1.21-0.21-2.41-0.65-3.53
				c-15.22-38.77-51.9-64.99-92.98-66.39c-43.55-1.48-83.85,25.21-100.07,66.38C426.53,314.5,426.31,315.71,426.31,316.93z"/>
			<path class="st2" d="M281.79,512.58L668.1,735.62c1.03,0.59,2.16,1.01,3.33,1.19c42.46,6.68,84.92-13.68,106.14-51.02
				c20.97-36.9,17.1-83.17-9.6-116.2c-0.75-0.92-1.67-1.69-2.7-2.29L378.95,344.26c-1.05-0.6-2.19-1.02-3.39-1.2
				c-41.19-6.21-82.24,12.46-103.98,47.33c-23.06,36.97-20.09,85.22,7.45,119.85C279.79,511.18,280.73,511.98,281.79,512.58z"/>
			<path class="st2" d="M378.95,735.67l386.31-223.04c1.03-0.59,1.95-1.36,2.7-2.29c27.01-33.43,30.61-80.38,8.89-117.43
				c-21.47-36.61-63.48-56.39-105.43-49.79c-1.17,0.18-2.3,0.6-3.33,1.19L281.77,567.36c-1.05,0.6-1.98,1.39-2.73,2.33
				c-25.97,32.57-30.33,77.45-11,113.72c20.49,38.45,63.76,60.01,107.52,53.47C376.75,736.7,377.9,736.28,378.95,735.67z"/>
		</g>
		<g>
			<circle class="st3" cx="524.2" cy="336.37" r="45.4"/>
			<circle class="st3" cx="522.78" cy="743.52" r="45.4"/>
			<circle class="st3" cx="347.57" cy="437.53" r="45.4"/>
			<circle class="st3" cx="699.46" cy="642.34" r="45.4"/>
			<circle class="st3" cx="346.85" cy="641.18" r="45.4"/>
			<circle class="st3" cx="700.16" cy="438.83" r="45.4"/>
		</g>
	</g>
</g>
<g>
	<path class="st4" d="M1205.01,827.39c-16.45,0-32.22-2.75-47.29-8.23c-15.09-5.48-28.38-13.57-39.89-24.26
		c-11.51-10.69-20.7-23.71-27.55-39.07c-6.85-15.34-10.28-32.62-10.28-51.82c0-27.41,3.16-57.84,9.46-91.29
		c6.29-33.44,15.21-67.03,26.73-100.75c11.51-33.72,24.8-66.48,39.89-98.29c15.07-31.79,31.66-60.16,49.76-85.12
		c18.09-24.95,36.87-44.83,56.34-59.63c19.46-14.81,39.07-22.21,58.81-22.21c9.31,0,18.09,2.2,26.32,6.58
		c8.23,4.4,15.48,9.87,21.8,16.45c6.3,6.58,11.37,13.86,15.21,21.8c3.83,7.95,5.76,15.5,5.76,22.62c0,11.51-3.16,26.19-9.46,44
		c-6.31,17.82-14.67,37.01-25.08,57.57c-10.42,20.57-22.62,41.82-36.6,63.74c-13.98,21.94-28.52,43.18-43.59,63.74
		c-15.09,20.56-30.3,39.76-45.65,57.57c-15.36,17.83-29.89,32.49-43.59,44c-1.1,6.58-2.2,13.44-3.29,20.56
		c-1.11,6.04-1.93,12.75-2.47,20.15c-0.55,7.41-0.82,14.68-0.82,21.8c0,19.2,4.52,34.83,13.57,46.88
		c9.05,12.07,22.06,18.1,39.07,18.1c10.96,0,21.8-3.56,32.49-10.69c10.69-7.12,20.15-15.35,28.38-24.68
		c9.87-9.87,18.91-21.66,27.14-35.37c0.54-1.64,1.92-3.56,4.11-5.76c1.09-1.09,2.74-2.32,4.93-3.7c2.18-1.36,4.65-2.06,7.4-2.06
		c4.38,0,8.35,1.65,11.93,4.93c3.56,3.29,5.35,7.14,5.35,11.52c0,2.2-0.41,4.25-1.23,6.17c-0.82,1.93-1.79,3.99-2.88,6.17
		c-1.11,2.2-2.2,4.67-3.29,7.41c-12.07,19.2-25.5,36.19-40.3,50.99c-12.62,12.62-27.55,24.13-44.83,34.54
		S1225.29,827.39,1205.01,827.39z M1348.95,313.35c0-7.67-3.29-11.52-9.87-11.52c-7.69,0-17.68,8.51-30.02,25.5
		c-12.34,17-25.23,39.21-38.66,66.62c-13.44,27.42-26.73,58.12-39.89,92.11c-13.16,34.01-23.85,68.27-32.08,102.81
		c9.32-7.67,19.6-18.64,30.84-32.9c11.23-14.25,22.34-30.29,33.31-48.11c10.96-17.81,21.66-36.32,32.08-55.52
		c10.41-19.19,19.6-37.69,27.55-55.52c7.94-17.81,14.39-34.13,19.33-48.94C1346.48,333.09,1348.95,321.58,1348.95,313.35z"/>
	<path class="st4" d="M1640.1,726.23c-12.07,19.2-27.14,36.19-45.24,50.99c-15.36,12.62-34.42,24.13-57.16,34.54
		c-22.76,10.41-49.76,15.63-81.01,15.63c-20.84,0-40.03-3.02-57.57-9.05c-17.55-6.02-32.63-14.39-45.24-25.08
		c-12.62-10.69-22.49-23.44-29.61-38.24c-7.12-14.81-10.69-30.97-10.69-48.53c0-31.25,5.76-59.76,17.27-85.54
		c11.51-25.76,26.04-47.83,43.59-66.21c17.54-18.36,36.6-32.49,57.16-42.35c20.56-9.87,39.89-14.81,57.98-14.81
		c12.61,0,24.39,2.47,35.37,7.4c10.96,4.94,20.56,11.39,28.79,19.33c8.23,7.95,14.66,17.14,19.33,27.55
		c4.65,10.42,6.99,21.11,6.99,32.08c0,9.87-2.2,21.79-6.58,35.78c-4.39,13.98-11.66,27.28-21.8,39.89
		c-10.15,12.62-23.85,23.44-41.12,32.49c-17.27,9.05-38.8,13.57-64.56,13.57c-6.04,0-12.34-0.82-18.92-2.47
		c-3.84-0.54-7.95-1.36-12.34-2.47c0,24.68,7.12,43.59,21.38,56.75c14.25,13.16,31.25,19.74,50.99,19.74
		c19.19,0,36.73-3.97,52.64-11.93c15.9-7.94,29.33-16.58,40.3-25.91c13.16-10.96,24.39-23.57,33.72-37.83
		c0.54-1.64,1.91-3.56,4.11-5.76c1.09-1.09,2.74-2.32,4.93-3.7c2.18-1.36,4.65-2.06,7.4-2.06c4.38,0,8.36,1.65,11.93,4.93
		c3.56,3.29,5.35,7.14,5.35,11.52c0,2.2-0.41,4.25-1.23,6.17c-0.82,1.93-1.79,3.99-2.88,6.17
		C1642.28,721.03,1641.19,723.49,1640.1,726.23z M1418.85,667.01c14.8,0,28.79-4.12,41.95-12.34c13.16-8.22,24.53-18.22,34.13-30.02
		c9.59-11.78,17.13-23.98,22.62-36.6c5.47-12.61,8.22-23.3,8.22-32.08c0-10.96-4.93-16.45-14.8-16.45
		c-11.51,0-22.76,4.67-33.72,13.98c-10.98,9.33-20.7,20.57-29.2,33.72c-8.51,13.16-15.5,27.14-20.97,41.94
		C1421.59,643.98,1418.85,656.6,1418.85,667.01z"/>
	<path class="st4" d="M1749.48,772.29c10.96,0,21.79-3.56,32.49-10.69c10.69-7.12,20.15-15.35,28.38-24.68
		c9.87-9.87,18.92-21.66,27.14-35.37c0.54-1.64,1.91-3.56,4.11-5.76c1.09-1.09,2.74-2.32,4.93-3.7c2.18-1.36,4.65-2.06,7.4-2.06
		c4.38,0,8.35,1.65,11.93,4.93c3.56,3.29,5.35,7.14,5.35,11.52c0,2.2-0.41,4.25-1.23,6.17c-0.82,1.93-1.79,3.99-2.88,6.17
		c-1.11,2.2-2.2,4.67-3.29,7.41c-12.07,19.2-25.5,36.19-40.3,50.99c-12.62,12.62-27.55,24.13-44.82,34.54s-36.06,15.63-56.34,15.63
		c-13.16,0-26.6-2.34-40.3-6.99c-13.71-4.65-26.19-11.37-37.42-20.15c-11.25-8.76-20.56-19.19-27.96-31.25
		c-7.4-12.06-11.1-25.22-11.1-39.48c0-11.51,1.37-25.62,4.11-42.35c2.75-16.72,6.58-34.96,11.51-54.69
		c4.94-19.74,10.55-40.57,16.86-62.51c6.3-21.92,13.02-43.59,20.15-64.98h-22.21c-4.39,0-6.58-2.47-6.58-7.4
		c0-4.38,2.6-10.28,7.81-17.68c5.2-7.4,10.82-11.1,16.86-11.1h16.45c8.22-22.48,16.31-43.18,24.26-62.09
		c7.94-18.92,15.76-34.96,23.44-48.12c2.18-4.38,5.2-8.08,9.05-11.1c3.83-3.01,8.23-4.52,13.16-4.52c6.03,0,12.75,1.92,20.15,5.76
		c7.4,3.84,14.4,8.36,20.97,13.57c6.58,5.22,12.05,10.56,16.45,16.04c4.38,5.49,6.58,10.15,6.58,13.98c0,3.84-2.61,12.48-7.81,25.91
		c-5.22,13.44-11.65,30.31-19.33,50.58h55.11c4.38,0,6.58,2.47,6.58,7.4c0,2.2-0.82,4.93-2.47,8.23c-1.64,3.29-3.7,6.45-6.17,9.46
		c-2.47,3.02-5.07,5.63-7.81,7.82c-2.75,2.2-5.49,3.29-8.23,3.29h-50.99c-6.58,18.1-13.3,37.3-20.15,57.58
		c-6.86,20.29-13.03,40.3-18.51,60.04c-5.49,19.74-10.01,38.8-13.57,57.17c-3.57,18.38-5.35,34.95-5.35,49.75
		c0,12.62,4.24,22.91,12.75,30.84C1727.13,768.32,1737.41,772.29,1749.48,772.29z"/>
	<path class="st4" d="M2200.18,726.23c-13.71,20.29-31.54,38.12-53.46,53.46c-18.65,13.71-42.64,26.05-71.97,37.01
		c-29.34,10.96-65.12,16.45-107.33,16.45c-20.29,0-39.48-3.98-57.57-11.93c-18.1-7.94-33.86-17.95-47.29-30.02
		c-13.44-12.05-24.13-25.21-32.08-39.48c-7.94-14.25-11.93-27.41-11.93-39.48c0-12.05,4.11-22.21,12.34-30.43
		s17.27-15.07,27.14-20.56c11.51-6.03,24.67-10.96,39.48-14.8c3.29-5.48,7.67-12.34,13.16-20.57c4.38-7.12,10.14-16.04,17.27-26.73
		c7.12-10.69,15.34-23.44,24.68-38.25c19.19-29.06,35.64-49.21,49.35-60.45c13.7-11.23,25.77-16.87,36.19-16.87
		c4.38,0,8.91,1.23,13.57,3.7c4.65,2.47,9.05,5.35,13.16,8.64c4.11,3.29,7.4,6.58,9.87,9.87s3.7,6.04,3.7,8.23
		c0,2.75-1.11,6.17-3.29,10.28c-2.2,4.11-4.52,8.51-6.99,13.16c-2.47,4.66-4.67,9.6-6.58,14.8c-1.93,5.22-2.88,10.56-2.88,16.04
		c0,16.45,1.64,30.71,4.93,42.77c3.29,12.06,6.99,23.44,11.1,34.13s7.81,21.12,11.1,31.26c3.29,10.15,4.94,21.52,4.94,34.13
		c0,10.97-0.97,20.15-2.88,27.55c-1.93,7.4-4.25,13.85-6.99,19.33c-2.75,6.04-5.76,11.25-9.05,15.63
		c15.9-4.38,30.29-10.55,43.18-18.5c12.88-7.94,23.71-15.76,32.49-23.44c9.87-9.32,18.64-19.19,26.32-29.61
		c0.54-1.64,1.91-3.56,4.11-5.76c1.09-1.09,2.74-2.32,4.93-3.7c2.18-1.36,4.65-2.06,7.4-2.06c4.38,0,8.35,1.65,11.93,4.93
		c3.56,3.29,5.35,7.14,5.35,11.52c0,2.2-0.41,4.25-1.23,6.17c-0.82,1.93-1.79,3.99-2.88,6.17
		C2202.37,721.03,2201.28,723.49,2200.18,726.23z M1968.25,599.57c-11.51,17.56-21.67,33.45-30.43,47.7
		c-7.69,12.62-14.67,24.4-20.97,35.37c-6.31,10.97-9.46,17.82-9.46,20.56c0,12.07,0.68,23.72,2.05,34.96
		c1.36,11.25,3.7,21.26,6.99,30.02c3.29,8.78,7.4,15.77,12.34,20.97c4.93,5.22,11.23,7.81,18.92,7.81
		c12.61,0,23.44-6.85,32.49-20.56c9.05-13.7,13.57-29.88,13.57-48.53c0-10.41-1.37-21.38-4.11-32.9
		c-2.75-11.51-5.63-22.88-8.63-34.13c-3.02-11.23-5.9-22.21-8.64-32.9C1969.61,617.25,1968.25,607.79,1968.25,599.57z"/>
	<g>
		<path class="st5" d="M2455.72,642.95v169.39h-61.17V634.21c0-51.76-26.89-82.68-67.89-82.68c-43.69,0-87.38,25.55-87.38,91.42
			v169.39h-61.17V498.43h61.17v47.05c16.13-34.95,61.17-50.41,86.71-52.43c12.1-0.67,23.53,0,34.28,2.02
			c39.66,6.05,67.22,26.89,82.01,61.17c28.9-55.79,78.64-64.53,108.89-64.53c78.64,0,120.99,50.41,120.99,139.14v181.49h-61.17
			V634.88c0-51.76-26.22-83.35-71.92-83.35C2487.31,551.53,2455.72,590.51,2455.72,642.95z"/>
		<path class="st5" d="M3065.39,678.57h-254.76c7.39,53.1,47.72,85.37,101.5,85.37c37.64,0,71.93-16.81,90.07-48.4
			c16.13,7.39,35.63,12.78,52.43,20.16c-26.89,55.79-83.35,83.35-144.52,83.35c-89.4,0-160.65-65.2-160.65-164.68
			c0-99.49,71.25-162.67,160.65-162.67c89.4,0,155.95,63.18,155.95,162.67C3066.06,661.76,3066.06,671.18,3065.39,678.57z
			 M3005.56,630.85c-7.39-53.1-44.36-84.03-95.45-84.03c-51.76,0-92.09,30.92-99.48,84.03H3005.56z"/>
		<path class="st5" d="M3439.12,678.57h-254.76c7.39,53.1,47.73,85.37,101.5,85.37c37.64,0,71.93-16.81,90.07-48.4
			c16.13,7.39,35.62,12.78,52.43,20.16c-26.89,55.79-83.35,83.35-144.52,83.35c-89.4,0-160.65-65.2-160.65-164.68
			c0-99.49,71.25-162.67,160.65-162.67c89.4,0,155.95,63.18,155.95,162.67C3439.79,661.76,3439.79,671.18,3439.12,678.57z
			 M3379.29,630.85c-7.39-53.1-44.36-84.03-95.45-84.03c-51.76,0-92.09,30.92-99.49,84.03H3379.29z"/>
		<path class="st5" d="M3669,498.43v51.76h-66.55v262.15h-61.17V550.19h-56.46v-51.76h56.46V380.12h61.17v118.31H3669z"/>
	</g>
	<g>
		<path class="st4" d="M1907.05,381.68c0-7.97,2.54-14.67,7.61-20.1c5.08-5.43,12.14-8.15,21.19-8.15c19.2,0,28.79,9.59,28.79,28.79
			c0,9.78-2.62,19.47-7.88,29.06c-5.25,9.59-11.41,18.29-18.47,26.08c-7.06,7.79-13.94,14.03-20.64,18.75
			c-6.7,4.7-11.49,7.06-14.4,7.06c-5.07,0-7.61-2.36-7.61-7.06c0-2.54,0.91-5.26,2.72-8.15c1.82-2.9,3.8-6.25,5.98-10.05
			s4.17-8.15,5.98-13.04c1.82-4.89,2.72-10.59,2.72-17.11c0-5.08-0.99-9.24-2.99-12.49C1908.05,392,1907.05,387.47,1907.05,381.68z"
			/>
	</g>
</g>
<g>
	<circle class="st0" cx="-3370.5" cy="-2149" r="478.5"/>
	<linearGradient id="SVGID_2_" gradientUnits="userSpaceOnUse" x1="-2980.6023" y1="-2409.0361" x2="-3757.9021" y2="-1890.6284">
		<stop  offset="0" style="stop-color:#999999"/>
		<stop  offset="0.1532" style="stop-color:#919A9E"/>
		<stop  offset="0.3894" style="stop-color:#7C9EAC"/>
		<stop  offset="0.6787" style="stop-color:#58A3C3"/>
		<stop  offset="1" style="stop-color:#29ABE2"/>
	</linearGradient>
	<circle class="st6" cx="-3370.5" cy="-2149" r="467.11"/>
	<g>
		<g>
			<path class="st2" d="M-3472.72-2383.56v469.18c0,1.25,0.22,2.5,0.67,3.66c16.25,42.19,57.12,70.16,102.29,69.85
				c44.64-0.31,84.75-28.16,100.8-69.85c0.45-1.17,0.66-2.41,0.66-3.66v-469.19c0-1.27-0.22-2.54-0.69-3.72
				c-16.01-40.78-54.59-68.36-97.79-69.83c-45.8-1.56-88.19,26.52-105.25,69.82C-3472.49-2386.11-3472.72-2384.84-3472.72-2383.56z"
				/>
			<path class="st2" d="M-3624.73-2177.78l406.32,234.59c1.08,0.63,2.27,1.06,3.51,1.26c44.66,7.02,89.32-14.39,111.64-53.66
				c22.05-38.81,17.98-87.47-10.09-122.22c-0.79-0.97-1.76-1.78-2.84-2.41l-406.33-234.59c-1.1-0.63-2.31-1.07-3.56-1.26
				c-43.32-6.53-86.49,13.1-109.37,49.78c-24.25,38.89-21.13,89.63,7.84,126.05C-3626.83-2179.25-3625.84-2178.41-3624.73-2177.78z"
				/>
			<path class="st2" d="M-3522.53-1943.14l406.32-234.59c1.08-0.63,2.05-1.44,2.84-2.41c28.41-35.17,32.2-84.55,9.35-123.51
				c-22.58-38.5-66.76-59.31-110.89-52.37c-1.23,0.19-2.42,0.63-3.5,1.26l-406.33,234.6c-1.1,0.63-2.08,1.46-2.88,2.45
				c-27.32,34.25-31.9,81.46-11.57,119.6c21.55,40.45,67.06,63.12,113.09,56.24C-3524.85-1942.06-3523.64-1942.5-3522.53-1943.14z"
				/>
		</g>
		<g>
			<circle class="st3" cx="-3369.76" cy="-2363.11" r="47.75"/>
			<circle class="st3" cx="-3371.26" cy="-1934.87" r="47.75"/>
			<circle class="st3" cx="-3555.54" cy="-2256.71" r="47.75"/>
			<circle class="st3" cx="-3185.43" cy="-2041.3" r="47.75"/>
			<circle class="st3" cx="-3556.3" cy="-2042.52" r="47.75"/>
			<circle class="st3" cx="-3184.69" cy="-2255.35" r="47.75"/>
		</g>
	</g>
</g>
<g>
	<path class="st4" d="M-2670.39-1880.98c-15.34,0-30.05-2.56-44.11-7.67c-14.08-5.11-26.47-12.66-37.21-22.63
		c-10.74-9.97-19.31-22.12-25.7-36.44c-6.39-14.31-9.59-30.43-9.59-48.34c0-25.57,2.95-53.95,8.82-85.16
		c5.87-31.19,14.19-62.52,24.93-93.98c10.74-31.45,23.14-62.01,37.21-91.68c14.06-29.65,29.54-56.12,46.42-79.4
		c16.88-23.27,34.39-41.81,52.55-55.62c18.15-13.81,36.44-20.72,54.85-20.72c8.69,0,16.88,2.05,24.55,6.13
		c7.67,4.1,14.44,9.21,20.33,15.34c5.87,6.14,10.61,12.92,14.19,20.33c3.57,7.42,5.37,14.46,5.37,21.1
		c0,10.74-2.95,24.43-8.82,41.04c-5.88,16.62-13.69,34.52-23.4,53.7c-9.72,19.18-21.1,39.01-34.14,59.46
		c-13.04,20.46-26.6,40.28-40.66,59.46c-14.07,19.18-28.27,37.09-42.58,53.7c-14.33,16.63-27.88,30.3-40.66,41.04
		c-1.03,6.14-2.05,12.54-3.07,19.18c-1.03,5.63-1.8,11.89-2.3,18.8c-0.52,6.91-0.77,13.69-0.77,20.33
		c0,17.91,4.22,32.48,12.66,43.73c8.44,11.26,20.58,16.88,36.44,16.88c10.23,0,20.33-3.32,30.3-9.97
		c9.97-6.65,18.8-14.32,26.47-23.02c9.2-9.21,17.64-20.2,25.32-32.99c0.5-1.53,1.79-3.32,3.84-5.37c1.02-1.02,2.55-2.17,4.6-3.45
		c2.04-1.27,4.34-1.92,6.91-1.92c4.09,0,7.79,1.54,11.12,4.6c3.32,3.07,4.99,6.66,4.99,10.74c0,2.05-0.38,3.97-1.15,5.75
		c-0.77,1.8-1.67,3.72-2.69,5.75c-1.03,2.05-2.05,4.35-3.07,6.91c-11.26,17.91-23.78,33.75-37.59,47.57
		c-11.77,11.77-25.7,22.51-41.81,32.22C-2633.95-1885.85-2651.47-1880.98-2670.39-1880.98z M-2536.13-2360.48
		c0-7.16-3.07-10.74-9.21-10.74c-7.17,0-16.5,7.94-28,23.79c-11.51,15.86-23.53,36.57-36.06,62.14
		c-12.54,25.58-24.93,54.22-37.21,85.92c-12.27,31.72-22.25,63.68-29.92,95.9c8.69-7.16,18.28-17.38,28.77-30.69
		c10.48-13.29,20.83-28.25,31.07-44.88c10.23-16.61,20.2-33.88,29.92-51.79c9.71-17.9,18.28-35.16,25.7-51.79
		c7.41-16.61,13.43-31.83,18.03-45.65C-2538.43-2342.07-2536.13-2352.81-2536.13-2360.48z"/>
	<path class="st4" d="M-2264.54-1975.35c-11.26,17.91-25.32,33.75-42.2,47.57c-14.33,11.77-32.1,22.51-53.32,32.22
		c-21.23,9.71-46.41,14.58-75.57,14.58c-19.44,0-37.34-2.82-53.7-8.44c-16.37-5.62-30.44-13.43-42.2-23.4
		c-11.77-9.97-20.98-21.87-27.62-35.67c-6.64-13.81-9.97-28.89-9.97-45.27c0-29.15,5.37-55.74,16.11-79.79
		c10.74-24.03,24.29-44.61,40.66-61.76c16.36-17.13,34.14-30.3,53.32-39.51c19.18-9.21,37.21-13.81,54.09-13.81
		c11.76,0,22.75,2.3,32.99,6.9c10.23,4.61,19.18,10.62,26.85,18.03c7.67,7.42,13.68,15.99,18.03,25.7
		c4.34,9.72,6.52,19.69,6.52,29.92c0,9.2-2.05,20.33-6.14,33.37c-4.1,13.04-10.87,25.45-20.33,37.21
		c-9.47,11.77-22.25,21.86-38.36,30.3c-16.11,8.44-36.19,12.66-60.23,12.66c-5.63,0-11.51-0.76-17.65-2.3
		c-3.58-0.5-7.42-1.27-11.51-2.3c0,23.02,6.64,40.66,19.95,52.94c13.29,12.27,29.15,18.41,47.57,18.41c17.9,0,34.26-3.7,49.1-11.12
		c14.83-7.41,27.36-15.46,37.59-24.17c12.27-10.23,22.75-21.98,31.46-35.29c0.5-1.53,1.79-3.32,3.84-5.37
		c1.02-1.02,2.55-2.17,4.6-3.45c2.04-1.27,4.34-1.92,6.9-1.92c4.09,0,7.79,1.54,11.12,4.6c3.32,3.07,4.99,6.66,4.99,10.74
		c0,2.05-0.38,3.97-1.15,5.75c-0.77,1.8-1.67,3.72-2.69,5.75C-2262.51-1980.2-2263.53-1977.9-2264.54-1975.35z M-2470.92-2030.59
		c13.81,0,26.85-3.84,39.13-11.51c12.27-7.67,22.88-17,31.84-28c8.94-10.99,15.98-22.37,21.1-34.14
		c5.11-11.76,7.67-21.73,7.67-29.92c0-10.22-4.6-15.34-13.81-15.34c-10.74,0-21.23,4.35-31.45,13.04
		c-10.24,8.7-19.31,19.18-27.24,31.46c-7.94,12.27-14.45,25.32-19.56,39.13C-2468.37-2052.07-2470.92-2040.3-2470.92-2030.59z"/>
	<path class="st4" d="M-2162.51-1932.38c10.22,0,20.33-3.32,30.3-9.97c9.97-6.65,18.8-14.32,26.47-23.02
		c9.21-9.21,17.65-20.2,25.32-32.99c0.5-1.53,1.79-3.32,3.84-5.37c1.02-1.02,2.55-2.17,4.6-3.45c2.04-1.27,4.34-1.92,6.91-1.92
		c4.09,0,7.79,1.54,11.12,4.6c3.32,3.07,4.99,6.66,4.99,10.74c0,2.05-0.38,3.97-1.15,5.75c-0.77,1.8-1.67,3.72-2.69,5.75
		c-1.03,2.05-2.05,4.35-3.07,6.91c-11.26,17.91-23.78,33.75-37.59,47.57c-11.77,11.77-25.7,22.51-41.81,32.22
		s-33.64,14.58-52.55,14.58c-12.27,0-24.82-2.18-37.59-6.52c-12.79-4.34-24.43-10.61-34.91-18.8c-10.49-8.17-19.18-17.9-26.08-29.15
		c-6.91-11.25-10.36-23.52-10.36-36.83c0-10.74,1.28-23.9,3.84-39.51c2.56-15.6,6.14-32.61,10.74-51.02
		c4.6-18.41,9.84-37.85,15.73-58.31c5.87-20.45,12.14-40.66,18.8-60.61h-20.72c-4.1,0-6.14-2.3-6.14-6.9c0-4.09,2.42-9.59,7.29-16.5
		c4.86-6.9,10.09-10.36,15.73-10.36h15.34c7.67-20.97,15.21-40.28,22.63-57.92c7.41-17.65,14.7-32.61,21.87-44.88
		c2.04-4.09,4.86-7.54,8.44-10.36c3.57-2.81,7.67-4.22,12.27-4.22c5.62,0,11.89,1.8,18.8,5.37c6.91,3.58,13.43,7.8,19.57,12.66
		c6.14,4.87,11.24,9.85,15.34,14.96c4.09,5.12,6.14,9.47,6.14,13.04c0,3.59-2.43,11.64-7.29,24.17
		c-4.87,12.54-10.87,28.27-18.03,47.18h51.4c4.09,0,6.14,2.3,6.14,6.9c0,2.05-0.77,4.6-2.3,7.67c-1.53,3.07-3.45,6.02-5.75,8.82
		c-2.3,2.82-4.73,5.25-7.29,7.29c-2.56,2.05-5.12,3.06-7.67,3.06h-47.57c-6.14,16.88-12.41,34.79-18.8,53.71
		c-6.4,18.93-12.15,37.59-17.26,56c-5.12,18.41-9.34,36.19-12.66,53.32c-3.33,17.14-4.99,32.6-4.99,46.41
		c0,11.77,3.96,21.37,11.89,28.77C-2183.36-1936.09-2173.77-1932.38-2162.51-1932.38z"/>
	<path class="st4" d="M-1742.1-1975.35c-12.79,18.93-29.42,35.55-49.87,49.87c-17.39,12.79-39.78,24.3-67.13,34.52
		c-27.37,10.23-60.74,15.34-100.12,15.34c-18.93,0-36.83-3.71-53.7-11.12c-16.88-7.41-31.59-16.75-44.11-28.01
		c-12.54-11.24-22.51-23.52-29.92-36.82c-7.41-13.29-11.12-25.57-11.12-36.82c0-11.24,3.84-20.72,11.51-28.39
		c7.67-7.67,16.11-14.06,25.32-19.18c10.74-5.62,23.01-10.23,36.82-13.81c3.07-5.11,7.16-11.51,12.27-19.18
		c4.09-6.64,9.46-14.96,16.11-24.93c6.64-9.97,14.31-21.87,23.02-35.68c17.9-27.1,33.24-45.9,46.03-56.38
		c12.78-10.48,24.04-15.73,33.76-15.73c4.09,0,8.31,1.15,12.66,3.45c4.34,2.31,8.44,4.99,12.27,8.06c3.84,3.07,6.91,6.13,9.21,9.2
		c2.3,3.07,3.45,5.63,3.45,7.67c0,2.56-1.03,5.75-3.07,9.59c-2.05,3.83-4.22,7.94-6.52,12.27c-2.3,4.35-4.35,8.95-6.14,13.81
		c-1.8,4.87-2.69,9.85-2.69,14.96c0,15.34,1.53,28.65,4.6,39.89c3.07,11.25,6.52,21.86,10.36,31.83c3.84,9.97,7.29,19.7,10.36,29.16
		c3.07,9.47,4.6,20.08,4.6,31.84c0,10.24-0.9,18.8-2.69,25.7c-1.8,6.9-3.97,12.92-6.52,18.03c-2.56,5.63-5.37,10.49-8.44,14.58
		c14.83-4.09,28.25-9.84,40.28-17.26c12.01-7.41,22.12-14.7,30.3-21.87c9.21-8.69,17.38-17.9,24.55-27.62
		c0.5-1.53,1.79-3.32,3.84-5.37c1.02-1.02,2.55-2.17,4.6-3.45c2.04-1.27,4.34-1.92,6.9-1.92c4.09,0,7.79,1.54,11.12,4.6
		c3.32,3.07,4.99,6.66,4.99,10.74c0,2.05-0.38,3.97-1.15,5.75c-0.77,1.8-1.67,3.72-2.68,5.75
		C-1740.06-1980.2-1741.08-1977.9-1742.1-1975.35z M-1958.45-2093.5c-10.74,16.38-20.21,31.21-28.39,44.5
		c-7.17,11.77-13.69,22.76-19.56,32.99c-5.89,10.24-8.82,16.62-8.82,19.18c0,11.26,0.63,22.13,1.92,32.61
		c1.27,10.49,3.45,19.83,6.52,28c3.07,8.19,6.9,14.71,11.51,19.57c4.6,4.87,10.48,7.29,17.65,7.29c11.76,0,21.86-6.39,30.3-19.18
		c8.44-12.78,12.66-27.87,12.66-45.27c0-9.71-1.28-19.95-3.84-30.69c-2.56-10.74-5.25-21.35-8.05-31.83
		c-2.82-10.48-5.5-20.72-8.06-30.69C-1957.18-2077-1958.45-2085.82-1958.45-2093.5z"/>
	<g>
		<path class="st5" d="M-1503.74-2053.03v158h-57.06v-166.16c0-48.28-25.08-77.12-63.33-77.12c-40.75,0-81.51,23.83-81.51,85.28v158
			h-57.06v-292.81h57.06v43.89c15.05-32.6,57.06-47.03,80.89-48.91c11.29-0.63,21.95,0,31.98,1.88
			c36.99,5.64,62.7,25.08,76.49,57.06c26.96-52.04,73.36-60.19,101.58-60.19c73.36,0,112.86,47.03,112.86,129.79v169.29h-57.06
			v-165.53c0-48.28-24.45-77.75-67.09-77.75C-1474.27-2138.31-1503.74-2101.94-1503.74-2053.03z"/>
		<path class="st5" d="M-935.05-2019.8h-237.64c6.9,49.53,44.52,79.63,94.68,79.63c35.11,0,67.09-15.68,84.02-45.15
			c15.05,6.9,33.23,11.92,48.91,18.81c-25.08,52.04-77.75,77.75-134.81,77.75c-83.39,0-149.86-60.82-149.86-153.62
			c0-92.8,66.46-151.74,149.86-151.74c83.39,0,145.47,58.94,145.47,151.74C-934.42-2035.48-934.42-2026.7-935.05-2019.8z
			 M-990.85-2064.32c-6.9-49.54-41.38-78.38-89.03-78.38c-48.28,0-85.9,28.84-92.8,78.38H-990.85z"/>
		<path class="st5" d="M-586.43-2019.8h-237.64c6.9,49.53,44.52,79.63,94.68,79.63c35.11,0,67.09-15.68,84.02-45.15
			c15.05,6.9,33.23,11.92,48.91,18.81c-25.08,52.04-77.75,77.75-134.81,77.75c-83.39,0-149.85-60.82-149.85-153.62
			c0-92.8,66.46-151.74,149.85-151.74s145.47,58.94,145.47,151.74C-585.8-2035.48-585.8-2026.7-586.43-2019.8z M-642.24-2064.32
			c-6.9-49.54-41.38-78.38-89.03-78.38c-48.28,0-85.9,28.84-92.8,78.38H-642.24z"/>
		<path class="st5" d="M-372-2187.84v48.28h-62.07v244.53h-57.06v-244.53h-52.67v-48.28h52.67v-110.36h57.06v110.36H-372z"/>
	</g>
	<g>
		<path class="st4" d="M-2015.53-2296.74c0-7.44,2.37-13.68,7.1-18.75c4.73-5.07,11.32-7.6,19.76-7.6
			c17.91,0,26.86,8.95,26.86,26.86c0,9.12-2.45,18.16-7.35,27.11c-4.89,8.95-10.64,17.06-17.23,24.32
			c-6.59,7.26-13,13.09-19.26,17.49c-6.25,4.38-10.72,6.59-13.43,6.59c-4.73,0-7.1-2.2-7.1-6.59c0-2.37,0.85-4.9,2.53-7.6
			c1.7-2.71,3.55-5.83,5.57-9.37c2.03-3.55,3.89-7.6,5.58-12.16c1.7-4.56,2.53-9.88,2.53-15.96c0-4.73-0.93-8.61-2.79-11.65
			C-2014.6-2287.11-2015.53-2291.34-2015.53-2296.74z"/>
	</g>
</g>
</svg>
